<?xml version="1.0" encoding="UTF-8"?> <svg xmlns="http://www.w3.org/2000/svg" id="Layer_1" data-name="Layer 1" viewBox="0 0 659.75 829.49"><defs><style> .cls-1, .cls-2, .cls-3, .cls-4, .cls-5, .cls-6, .cls-7, .cls-8 { stroke-width: 0px; } .cls-1, .cls-8 { fill: #bc955c; } .cls-2, .cls-3 { fill: #5d452b; } .cls-3, .cls-6, .cls-7, .cls-8 { fill-rule: evenodd; } .cls-4, .cls-7 { fill: #9ea1a2; } .cls-5, .cls-6 { fill: #fff; } </style></defs><path class="cls-3" d="m158.67,347.37c73.6,0,135.49,50.12,153.43,118.09h-22c-17.32-56.14-69.61-96.93-131.43-96.93-75.94,0-137.52,61.57-137.52,137.52s61.57,137.52,137.52,137.52c59.95,0,110.94-38.37,129.76-91.9h22.25c-19.6,65.39-80.23,113.05-152.01,113.05C71.04,664.71,0,593.67,0,506.04s71.04-158.67,158.67-158.67Z"></path><path class="cls-8" d="m158.67,368.52c61.82,0,114.11,40.79,131.43,96.93h-16.72c-16.71-47.23-61.74-81.06-114.71-81.06-67.2,0-121.65,54.46-121.65,121.65s54.44,121.65,121.65,121.65c51.06,0,94.76-31.45,112.8-76.03h16.96c-18.82,53.52-69.8,91.9-129.76,91.9-75.94,0-137.52-61.57-137.52-137.52s61.57-137.52,137.52-137.52Z"></path><path class="cls-7" d="m238.94,465.46h-12.09c-13.84-23.21-39.19-38.75-68.18-38.75-43.82,0-79.34,35.52-79.34,79.34s35.52,79.34,79.34,79.34c26.83,0,50.55-13.33,64.91-33.72h47.89c-18.04,44.58-61.73,76.03-112.8,76.03-67.2,0-121.65-54.46-121.65-121.65s54.44-121.65,121.65-121.65c52.97,0,98,33.84,114.71,81.06h-34.44Z"></path><path class="cls-6" d="m158.67,384.39c48.9,0,91.03,28.84,110.36,70.43h-36.44c-16.22-23.38-43.26-38.69-73.92-38.69-49.73,0-89.91,40.26-89.91,89.91s40.19,89.91,89.91,89.91c27.62,0,52.3-12.43,68.78-31.98h38.21c-20.59,37.95-60.77,63.72-106.99,63.72-67.2,0-121.65-54.46-121.65-121.65s54.44-121.65,121.65-121.65Z"></path><path class="cls-2" d="m63.01,766.35c-9-2.64-16.08-6.26-21.31-10.88-5.2-4.6-7.81-10.17-7.81-16.74s2.61-11.93,7.81-16.57c5.23-4.62,11.53-6.93,18.96-6.93s13.66,2.31,18.94,6.9c2.88,2.45,4.87,5.24,5.98,8.29l-6.38,2.24c-.94-2.26-2.51-4.36-4.66-6.26-3.82-3.36-8.46-5.02-13.87-5.02s-10.05,1.67-13.9,5.05c-3.85,3.38-5.76,7.48-5.76,12.31s1.91,8.88,5.76,12.29c3.58,3.12,8.51,5.98,14.84,8.57,10.1,2.88,18.58,7.38,25.48,13.48,7.33,6.4,10.96,14.17,10.96,23.29s-3.64,16.98-10.96,23.43c-7.3,6.48-16.13,9.71-26.42,9.71s-19.12-3.26-26.45-9.79c-5.84-5.14-9.35-11.14-10.5-17.98l6.73-2.17c.73,6.05,3.64,11.31,8.75,15.83,5.93,5.26,13.09,7.88,21.47,7.88s15.59-2.62,21.52-7.88c5.95-5.26,8.91-11.6,8.91-19.05s-2.96-13.71-8.91-18.98c-5.2-4.59-11.58-8.26-19.18-11.02Z"></path><path class="cls-2" d="m219.23,716.54h7.19v80.24c-1.32,8.5-5.33,15.74-12.07,21.69-8.05,7.12-17.75,10.67-29.12,10.67s-21.14-3.55-29.2-10.67c-8.05-7.12-12.09-15.69-12.09-25.74v-76.19h7.19v76.19c0,8.26,3.34,15.36,9.99,21.24,6.65,5.88,14.68,8.81,24.11,8.81s17.43-2.93,24.05-8.81c6.63-5.88,9.94-12.98,9.94-21.24v-76.19Z"></path><path class="cls-2" d="m385.85,814.28c-11.99,10.14-26.31,15.21-42.99,15.21-17.88,0-33.13-5.57-45.73-16.71-12.61-11.14-18.91-24.62-18.91-40.43s6.3-29.21,18.91-40.38c12.6-11.17,27.85-16.74,45.73-16.74,16.67,0,31.16,4.95,43.47,14.86l-5.36,4.31c-10.85-8.5-23.54-12.76-38.11-12.76-15.84,0-29.36,4.95-40.56,14.86-11.2,9.91-16.81,21.86-16.81,35.86s5.6,26.02,16.81,35.93c11.2,9.9,24.73,14.86,40.56,14.86,13.57,0,25.53-3.69,35.9-11.1v-34.02h7.08v36.26Z"></path><path class="cls-2" d="m496.52,779.11l-19.23-46.79-19.26,46.79h38.49Zm2.61,6.29h-43.71l-17.59,42.76h-7.59l47.05-114.19,46.95,114.19h-7.51l-17.59-42.76Z"></path><path class="cls-2" d="m577.22,722.9v60.19h21.47c9.37,0,17.37-2.93,24.03-8.81,6.65-5.88,9.99-13,9.99-21.31s-3.34-15.43-9.99-21.29c-6.65-5.86-14.65-8.79-24.03-8.79h-21.47Zm23.59,66.48c-.67.05-1.4.07-2.13.07h-21.47v38.71h-7.11v-111.62h33.16c9.62,1.17,17.8,4.74,24.54,10.69,8.05,7.12,12.07,15.69,12.07,25.74s-4.01,18.69-12.07,25.81c-5.58,4.93-11.96,8.17-19.18,9.69l29.12,39.69h-8.75l-28.17-38.79Z"></path><path class="cls-3" d="m158.67,0c73.6,0,135.49,50.12,153.43,118.09h-22c-17.32-56.14-69.61-96.93-131.43-96.93-75.94,0-137.52,61.57-137.52,137.52s61.57,137.52,137.52,137.52c59.95,0,110.94-38.37,129.76-91.9h22.25c-19.6,65.39-80.23,113.05-152.01,113.05C71.04,317.35,0,246.3,0,158.67S71.04,0,158.67,0Z"></path><path class="cls-8" d="m158.67,21.16c61.82,0,114.11,40.79,131.43,96.93h-16.72c-16.71-47.23-61.74-81.06-114.71-81.06-67.2,0-121.65,54.46-121.65,121.65s54.44,121.65,121.65,121.65c51.06,0,94.76-31.45,112.8-76.03h16.96c-18.82,53.52-69.8,91.9-129.76,91.9-75.94,0-137.52-61.57-137.52-137.52S82.73,21.16,158.67,21.16Z"></path><path class="cls-7" d="m238.94,118.09h-12.09c-13.84-23.21-39.19-38.75-68.18-38.75-43.82,0-79.34,35.52-79.34,79.34s35.52,79.34,79.34,79.34c26.83,0,50.55-13.33,64.91-33.72h47.89c-18.04,44.58-61.73,76.03-112.8,76.03-67.2,0-121.65-54.46-121.65-121.65s54.44-121.65,121.65-121.65c52.97,0,98,33.84,114.71,81.06h-34.44Z"></path><path class="cls-6" d="m158.67,37.02c48.9,0,91.03,28.84,110.36,70.43h-36.44c-16.22-23.38-43.26-38.69-73.92-38.69-49.73,0-89.91,40.26-89.91,89.91s40.19,89.91,89.91,89.91c27.62,0,52.3-12.43,68.78-31.98h38.21c-20.59,37.95-60.77,63.72-106.99,63.72-67.2,0-121.65-54.46-121.65-121.65s54.44-121.65,121.65-121.65Z"></path><ellipse class="cls-2" cx="501.05" cy="158.67" rx="158.7" ry="158.67" transform="translate(-.27 .84) rotate(-.1)"></ellipse><ellipse class="cls-1" cx="501.07" cy="158.67" rx="137.56" ry="137.52" transform="translate(-.29 .9) rotate(-.1)"></ellipse><ellipse class="cls-5" cx="501.04" cy="158.67" rx="121.66" ry="121.65"></ellipse><circle class="cls-4" cx="501.03" cy="158.67" r="89.77" transform="translate(319.87 652.02) rotate(-87.41)"></circle><circle class="cls-5" cx="501.03" cy="158.67" r="79.34" transform="translate(314.97 650.19) rotate(-86.84)"></circle><ellipse class="cls-2" cx="501.05" cy="506.04" rx="158.7" ry="158.67" transform="translate(-.83 .82) rotate(-.09)"></ellipse><ellipse class="cls-1" cx="501.07" cy="506.04" rx="137.56" ry="137.52" transform="translate(-.91 .9) rotate(-.1)"></ellipse><ellipse class="cls-5" cx="501.04" cy="506.04" rx="121.66" ry="121.65"></ellipse><circle class="cls-4" cx="501.03" cy="506.04" r="89.77" transform="translate(-29.27 981.32) rotate(-87.15)"></circle><circle class="cls-5" cx="501.03" cy="506.04" r="79.34" transform="translate(-44.45 963.81) rotate(-85.29)"></circle></svg> 